<?xml version="1.0" standalone="no"?>
<!DOCTYPE svg PUBLIC "-//W3C//DTD SVG 20010904//EN"
 "http://www.w3.org/TR/2001/REC-SVG-20010904/DTD/svg10.dtd">
<svg version="1.0" xmlns="http://www.w3.org/2000/svg"
 width="1500.000000pt" height="1500.000000pt" viewBox="0 0 1500.000000 1500.000000"
 preserveAspectRatio="xMidYMid meet">

<g transform="translate(0.000000,1500.000000) scale(0.100000,-0.100000)"
fill="#000000" stroke="none">
<path d="M3330 12394 c-25 -7 -63 -25 -85 -38 -22 -14 -77 -43 -122 -65 -104
-52 -174 -119 -216 -208 l-32 -68 -3 -515 c-4 -540 -1 -583 40 -665 36 -69
121 -149 201 -186 l72 -34 917 -3 917 -3 273 -198 c150 -109 274 -196 275
-192 2 3 -12 54 -31 114 -19 59 -30 107 -26 107 4 0 60 -38 125 -85 65 -46
121 -83 125 -80 3 2 -17 77 -47 166 -29 89 -50 166 -47 170 3 5 15 9 27 9 12
0 49 12 82 26 33 15 91 37 129 50 39 13 86 35 105 48 98 65 169 172 191 285
14 76 13 974 -1 1043 -28 133 -115 243 -236 301 l-68 32 -1260 2 c-1070 1
-1267 0 -1305 -13z m2600 -21 c95 -39 169 -107 215 -197 l40 -79 0 -551 0
-551 -33 -67 c-41 -83 -107 -149 -191 -191 -63 -31 -71 -32 -203 -35 -94 -2
-138 -7 -138 -15 0 -6 25 -89 56 -184 31 -95 54 -177 52 -183 -2 -5 -124 78
-272 185 l-268 195 -922 2 -921 3 -67 33 c-85 42 -148 105 -190 190 l-33 67 0
550 0 551 38 76 c56 114 158 193 277 217 25 5 595 8 1275 8 l1230 -2 55 -22z"/>
<path d="M3598 12043 c166 -2 438 -2 605 0 166 1 30 2 -303 2 -333 0 -469 -1
-302 -2z"/>
<path d="M3887 11883 c314 -2 832 -2 1150 0 318 1 61 2 -572 2 -632 0 -893 -1
-578 -2z"/>
<path d="M3673 11713 c203 -2 531 -2 730 0 199 1 34 2 -368 2 -401 0 -564 -1
-362 -2z"/>
<path d="M3315 11560 c4 -7 335 -10 960 -10 625 0 956 3 960 10 4 7 -318 10
-960 10 -642 0 -964 -3 -960 -10z"/>
<path d="M3315 11410 c-4 -7 399 -10 1145 -10 774 0 1149 3 1145 10 -9 14
-2282 13 -2290 0z"/>
<path d="M3320 11250 c0 -7 385 -10 1135 -10 750 0 1135 3 1135 10 0 7 -385
10 -1135 10 -750 0 -1135 -3 -1135 -10z"/>
<path d="M3320 11090 c0 -7 388 -10 1145 -10 757 0 1145 3 1145 10 0 7 -388
10 -1145 10 -757 0 -1145 -3 -1145 -10z"/>
<path d="M10475 12245 c-234 -46 -420 -148 -578 -316 -134 -142 -222 -313
-262 -503 -21 -103 -21 -295 0 -405 60 -311 272 -587 560 -726 610 -297 1329
53 1471 716 22 101 25 314 5 404 -87 411 -372 709 -781 817 -98 26 -316 33
-415 13z m165 -90 c0 -50 4 -85 10 -85 6 0 10 35 10 85 l0 85 54 0 c194 0 458
-109 614 -254 l32 -30 -62 -63 c-34 -34 -59 -65 -56 -68 3 -3 34 22 68 57 l63
63 51 -57 c134 -147 225 -362 243 -573 l6 -75 -94 -2 c-83 -2 -86 -2 -24 -5
114 -5 115 -5 115 -64 0 -132 -63 -336 -145 -472 -47 -79 -125 -177 -140 -177
-6 0 -37 27 -70 60 -33 33 -64 60 -69 60 -5 0 22 -32 60 -71 l68 -72 -34 -29
c-125 -105 -265 -185 -390 -222 -61 -18 -220 -46 -262 -46 l-28 0 0 101 c0 64
-4 98 -10 94 -6 -3 -10 -48 -10 -101 0 -110 12 -103 -140 -79 -139 21 -279 72
-387 141 -81 52 -172 126 -172 142 -1 8 26 41 59 74 34 33 58 63 55 66 -3 3
-35 -23 -71 -59 l-65 -64 -44 48 c-58 63 -130 180 -167 270 -55 136 -96 370
-67 388 8 5 50 10 94 11 l80 2 -90 5 -90 6 3 70 c4 106 38 228 97 350 50 104
126 216 174 259 l22 20 64 -64 c36 -36 65 -60 65 -54 0 5 -25 34 -55 64 -30
30 -55 60 -55 66 0 18 90 90 180 144 134 80 318 137 448 139 l62 1 0 -85z"/>
<path d="M10648 11954 c-5 -4 -8 -151 -8 -327 l0 -320 -25 -23 c-51 -47 -20
-120 49 -112 33 4 43 -5 212 -164 98 -92 181 -165 183 -162 3 3 -19 29 -49 57
-30 28 -110 104 -178 169 -116 111 -123 121 -117 149 6 24 2 34 -24 58 l-31
29 -2 327 c-2 180 -6 323 -10 319z"/>
<path d="M7664 10910 c-54 -17 -128 -73 -161 -123 -30 -45 -43 -79 -58 -150
-5 -27 -6 -28 -58 -20 -28 4 -110 7 -182 6 -108 -1 -145 -5 -218 -27 -174 -52
-301 -131 -389 -244 -148 -187 -211 -334 -308 -721 -128 -510 -149 -983 -59
-1328 82 -313 268 -563 505 -678 73 -36 108 -43 119 -25 7 11 -1 24 -65 105
-55 68 -124 205 -160 314 -31 96 -74 300 -68 328 2 10 19 -8 47 -53 58 -90
209 -239 288 -284 l62 -35 1 -197 c0 -197 0 -198 -22 -203 -13 -3 -77 -16
-143 -30 -408 -86 -747 -211 -871 -319 -34 -30 -59 -64 -78 -105 -15 -34 -29
-61 -31 -61 -2 0 -34 60 -72 133 -81 155 -197 340 -301 481 -451 607 -1047
954 -1782 1037 -164 19 -560 16 -748 -5 -290 -32 -729 -116 -687 -131 168 -62
331 -201 547 -467 78 -96 361 -515 543 -802 238 -376 447 -635 648 -803 381
-318 886 -512 1333 -513 55 0 103 -3 107 -6 3 -3 -23 -88 -57 -187 l-63 -182
-142 -3 -141 -3 -2 -1307 -3 -1307 -389 -3 c-215 -1 -393 1 -398 6 -4 4 6 75
22 157 23 121 86 448 139 733 8 42 6 47 -88 205 l-97 162 -52 3 c-29 2 -52 8
-52 13 0 6 14 30 30 54 50 72 90 166 90 210 0 50 -31 102 -66 111 -61 15 -125
-86 -171 -269 -27 -112 -44 -137 -69 -103 -7 10 -17 39 -23 65 -6 25 -21 85
-35 133 l-24 87 44 60 c59 81 140 223 165 291 12 30 23 82 26 115 4 52 2 65
-19 95 -47 69 -110 64 -149 -11 -28 -57 -57 -200 -64 -324 -11 -190 -9 -190
-76 -5 -33 91 -66 181 -73 200 -13 34 -12 36 40 110 30 41 79 118 109 170 122
214 144 357 64 424 -57 48 -112 30 -152 -49 -38 -75 -76 -299 -78 -455 -1
-121 -9 -137 -38 -69 -13 30 -63 135 -113 235 l-90 181 74 110 c127 189 198
348 198 447 0 56 -29 106 -75 130 -34 17 -41 18 -64 5 -77 -44 -126 -223 -138
-512 -3 -81 -10 -144 -14 -140 -4 4 -25 60 -47 123 -131 380 -249 579 -321
540 -45 -24 -33 -98 37 -234 46 -89 174 -287 251 -389 22 -28 38 -53 37 -55
-2 -2 -46 25 -97 58 -164 108 -330 180 -415 180 -108 0 -186 -107 -121 -168
68 -64 310 -112 566 -112 53 0 101 -4 107 -8 24 -16 242 -458 231 -469 -2 -2
-46 25 -98 60 -181 123 -346 197 -441 197 -58 0 -109 -27 -132 -71 -17 -31
-18 -40 -7 -66 32 -79 223 -128 539 -142 l154 -6 25 -60 c39 -96 125 -356 120
-362 -3 -2 -43 21 -89 52 -142 97 -297 164 -381 165 -75 0 -140 -70 -115 -124
27 -60 168 -99 423 -117 88 -6 165 -13 171 -14 13 -4 77 -238 72 -263 -2 -13
-16 -18 -61 -20 -54 -3 -64 0 -130 41 -93 57 -146 77 -203 77 -37 0 -51 -5
-75 -29 -16 -16 -29 -38 -29 -49 0 -28 36 -70 81 -93 l39 -20 -86 -127 -86
-127 81 -460 c45 -254 81 -466 81 -473 0 -9 -61 -12 -255 -12 -142 0 -255 4
-255 9 0 5 9 28 20 52 19 42 20 67 20 536 0 317 -4 494 -10 498 -6 4 -10 53
-10 115 0 87 -3 109 -15 114 -11 4 -15 21 -15 60 0 45 -4 58 -22 70 -57 40
-108 4 -108 -74 0 -36 -4 -52 -15 -56 -11 -5 -15 -24 -16 -78 0 -39 -3 -89 -7
-111 -6 -34 -11 -40 -32 -40 l-25 0 -5 204 c-5 189 -6 205 -25 215 -10 6 -28
21 -38 34 -10 12 -25 22 -32 22 -7 0 -22 -10 -32 -22 -10 -13 -28 -28 -38 -34
-19 -10 -20 -25 -23 -218 l-2 -207 -38 3 -37 3 0 135 c0 74 -1 197 -2 273 -3
138 -3 139 -32 168 -35 35 -83 38 -121 9 l-25 -19 -5 -283 c-6 -327 -22 -382
-30 -101 -3 115 -9 186 -17 200 -17 28 -72 47 -104 34 -50 -19 -54 -32 -59
-230 l-5 -186 -35 -5 -35 -5 0 -490 c0 -488 0 -490 23 -536 12 -25 22 -48 22
-51 0 -3 -35 -7 -77 -10 -94 -6 -156 -31 -212 -87 -57 -57 -83 -114 -89 -192
-7 -97 17 -159 87 -230 38 -38 72 -61 105 -72 46 -16 438 -17 5671 -17 5090 0
5626 1 5668 16 60 20 131 84 165 148 23 44 27 63 27 136 0 64 -5 94 -19 120
-35 66 -83 115 -142 145 l-59 30 -337 3 -338 3 0 719 0 720 -85 0 c-47 0 -85
3 -85 8 0 14 76 156 114 213 31 48 53 65 149 123 174 103 315 213 361 280 40
59 34 106 -15 131 -39 21 -88 19 -153 -6 -100 -37 -212 -189 -298 -404 -14
-33 -41 -83 -60 -110 -20 -28 -57 -92 -82 -143 l-46 -92 -136 0 c-124 0 -135
1 -130 18 2 9 19 69 37 132 78 283 214 555 306 613 21 13 100 62 176 108 142
86 372 252 440 317 131 126 85 265 -87 264 -167 -1 -296 -115 -443 -392 -28
-52 -68 -138 -88 -190 -21 -52 -62 -131 -91 -176 -98 -148 -194 -376 -254
-607 l-23 -88 -46 3 c-42 3 -45 5 -53 38 -5 19 -29 98 -54 176 l-44 140 25 88
c20 71 36 100 78 154 124 155 216 302 253 400 30 79 30 97 -1 127 -42 43 -132
27 -191 -33 -75 -76 -110 -195 -120 -407 -5 -99 -13 -148 -31 -205 -14 -41
-26 -76 -28 -78 -1 -2 -28 49 -58 113 -31 63 -82 155 -113 203 -32 48 -88 146
-125 217 -199 388 -377 605 -496 605 -43 0 -88 -33 -112 -83 -19 -39 -21 -51
-11 -85 30 -113 225 -294 543 -506 129 -86 146 -102 186 -163 58 -88 173 -326
173 -355 -1 -13 -4 -96 -8 -185 l-7 -163 -32 0 c-28 0 -50 18 -166 133 -74 74
-156 149 -184 167 -27 18 -90 73 -140 123 -49 49 -117 109 -150 134 -151 115
-292 134 -375 51 -52 -52 -35 -105 48 -147 64 -32 225 -78 374 -106 78 -15
157 -33 173 -40 53 -22 147 -100 250 -207 l100 -103 -117 -3 -118 -3 -2 -717
-3 -717 -849 -3 -848 -2 6 23 c3 13 12 39 20 59 l15 36 106 4 c118 4 147 17
126 57 -16 29 -79 28 -153 -3 -32 -13 -58 -20 -58 -15 0 5 13 36 30 68 l29 59
124 3 c132 4 161 14 155 53 -7 50 -89 50 -196 1 -30 -14 -57 -23 -60 -21 -2 3
19 43 48 90 l51 86 122 0 c177 0 231 19 206 74 -23 49 -103 47 -216 -4 -36
-17 -70 -29 -75 -28 -6 2 98 147 124 173 2 2 46 -10 98 -26 109 -35 214 -44
230 -19 15 24 12 39 -16 67 -25 25 -28 25 -127 20 -56 -3 -115 -9 -131 -13
-38 -9 -31 2 61 100 l72 77 58 -29 c89 -45 206 -84 243 -80 65 6 67 72 3 104
-31 16 -61 19 -162 19 l-124 0 89 82 c49 46 95 83 102 83 7 0 44 -16 82 -35
140 -71 278 -103 308 -73 7 7 12 24 12 39 0 68 -116 106 -290 94 l-95 -6 25
20 c14 12 68 50 120 86 l96 66 96 -45 c120 -56 235 -91 271 -82 61 15 53 82
-13 120 -31 19 -52 21 -177 21 -78 0 -140 1 -139 3 2 1 45 22 95 47 176 86
272 161 257 200 -17 46 -121 -11 -288 -158 -43 -37 -78 -63 -78 -57 0 6 13 37
30 70 40 79 80 201 80 242 0 43 -15 58 -56 58 -70 0 -100 -94 -91 -281 l7
-115 -107 -75 c-59 -40 -113 -77 -119 -81 -6 -4 11 44 38 107 73 168 76 255
11 255 -75 0 -99 -63 -96 -259 l1 -144 -31 -26 c-18 -14 -53 -46 -80 -70 -26
-24 -49 -42 -51 -40 -2 2 11 38 30 79 58 132 67 212 25 223 -29 7 -64 -14 -84
-53 -15 -29 -17 -57 -16 -163 l2 -129 -73 -80 c-40 -43 -74 -78 -75 -76 -2 2
7 41 21 87 28 97 31 163 8 185 -18 19 -17 19 -48 5 -47 -22 -58 -110 -31 -245
l16 -75 -71 -94 c-39 -52 -73 -95 -74 -95 -1 0 -3 53 -3 118 0 156 -23 204
-83 172 -44 -23 -32 -121 29 -244 l39 -76 -47 -80 c-25 -43 -49 -79 -53 -80
-5 0 -8 39 -8 88 0 100 -14 137 -50 137 -32 0 -52 -38 -44 -85 3 -19 22 -70
42 -113 l35 -78 -29 -61 -29 -61 -7 76 c-10 113 -38 147 -74 92 -19 -30 -13
-63 28 -156 l29 -65 -24 -65 c-20 -54 -28 -64 -50 -67 l-27 -3 -2 1308 -3
1308 -194 5 -195 5 -62 248 -62 248 29 15 c16 8 29 21 29 28 0 8 -45 117 -100
242 -56 126 -153 351 -218 499 -134 309 -147 327 -289 405 -45 25 -83 48 -83
53 0 11 91 67 109 67 9 0 32 -10 51 -21 19 -12 82 -46 140 -75 167 -84 293
-119 339 -95 54 29 45 115 -17 155 -70 46 -143 60 -315 60 l-158 1 25 20 c32
25 319 175 336 175 6 0 53 -39 103 -86 261 -246 417 -302 417 -150 0 34 -7 46
-48 86 -60 57 -158 100 -317 138 -63 15 -115 29 -115 32 0 3 12 11 28 17 250
104 350 143 363 143 9 0 47 -39 85 -87 107 -136 240 -265 308 -298 54 -26 61
-28 85 -14 61 35 64 109 6 176 -59 69 -219 157 -375 208 -30 9 -59 21 -63 25
-5 4 20 17 55 29 111 36 340 101 358 101 10 0 56 -48 107 -112 264 -330 451
-441 492 -292 16 57 -4 102 -72 170 -70 68 -222 149 -384 205 -51 17 -93 35
-93 39 0 9 288 66 414 82 l98 12 22 -29 c55 -77 149 -188 230 -272 155 -163
263 -213 316 -145 31 38 24 116 -14 167 -57 74 -220 169 -406 236 l-95 34 205
6 c217 7 284 13 393 35 75 15 101 26 135 57 27 25 28 41 2 67 -45 45 -278 15
-583 -76 -82 -25 -151 -43 -154 -41 -2 2 38 37 89 78 128 101 279 253 316 319
46 79 43 129 -9 155 -132 69 -277 -97 -405 -463 -18 -52 -34 -96 -37 -98 -2
-2 -73 -15 -158 -29 -85 -13 -198 -33 -252 -45 -55 -12 -101 -20 -103 -17 -2
2 33 32 79 68 119 93 289 265 326 329 51 91 36 151 -44 166 -55 10 -117 -18
-171 -79 -54 -62 -150 -252 -198 -391 -19 -54 -38 -101 -43 -106 -4 -4 -46
-17 -93 -30 -47 -12 -134 -38 -193 -57 -60 -19 -111 -33 -113 -30 -3 2 19 22
48 44 84 63 218 193 264 256 71 96 69 156 -6 178 -35 11 -44 10 -87 -13 -83
-42 -166 -175 -241 -388 l-37 -102 -125 -48 c-69 -26 -151 -60 -184 -74 -32
-15 -60 -25 -62 -24 -1 2 36 46 82 98 194 216 243 342 145 371 -111 33 -211
-120 -270 -416 l-16 -80 -115 -60 c-63 -33 -150 -80 -194 -104 -43 -24 -77
-40 -75 -35 2 5 39 79 81 164 102 205 129 322 83 360 -21 17 -82 15 -111 -5
-64 -42 -101 -211 -91 -423 l6 -123 -69 -45 -69 -44 -43 16 c-24 10 -44 18
-46 19 -1 1 11 37 28 79 36 89 48 163 31 194 -13 25 -67 30 -102 11 -29 -15
-67 -104 -75 -172 -4 -31 -10 -59 -14 -62 -3 -2 -63 12 -131 31 -101 28 -431
104 -453 104 -3 0 -6 83 -6 185 l0 185 47 28 c220 129 388 365 459 645 13 55
20 66 41 72 45 11 72 36 100 93 22 46 27 68 27 136 0 91 -17 141 -59 178 l-26
22 7 136 c20 407 -72 793 -241 1018 l-47 62 50 55 c144 157 100 398 -90 496
-48 25 -180 36 -234 19z m95 -1434 c76 -161 183 -271 339 -347 45 -22 82 -46
82 -53 0 -7 -5 -62 -10 -122 -36 -375 -146 -642 -341 -830 -165 -158 -339
-219 -579 -202 -279 19 -527 195 -676 478 l-29 55 0 290 c0 322 5 362 38 370
552 117 890 289 1059 537 l41 62 19 -78 c10 -43 35 -115 57 -160z m507 -443
c21 -48 18 -179 -5 -229 -22 -49 -57 -84 -84 -84 -15 0 -17 5 -13 28 14 62 33
211 35 271 1 36 5 69 8 74 8 13 44 -24 59 -60z m-4218 -789 l104 -309 102 -67
c177 -115 392 -283 548 -427 32 -29 58 -49 58 -43 0 10 -88 327 -148 537 -16
55 -28 103 -25 108 15 26 33 -9 70 -140 22 -82 67 -240 98 -353 l57 -205 132
-135 c133 -137 280 -304 370 -418 27 -34 50 -61 51 -60 2 2 -19 149 -46 328
-27 179 -46 331 -43 339 3 10 8 11 15 4 11 -11 28 -113 89 -522 l32 -213 44
-60 c40 -55 47 -78 24 -78 -4 0 -28 27 -52 59 -35 49 -49 61 -78 65 -19 3
-204 20 -410 37 -378 33 -433 40 -413 60 12 12 29 10 523 -37 336 -32 309 -33
269 19 -95 121 -260 308 -389 439 l-145 147 -255 -14 c-468 -26 -590 -29 -590
-16 0 6 6 13 13 16 6 2 187 13 401 24 214 11 390 22 392 24 4 4 -173 160 -274
241 -106 85 -249 190 -359 264 l-92 62 -323 -15 c-583 -27 -688 -29 -688 -16
0 20 -36 18 535 41 138 6 288 13 333 16 l84 6 -56 34 c-365 220 -845 397
-1258 465 -98 15 -138 26 -138 36 0 18 36 17 171 -8 413 -74 821 -225 1222
-452 53 -31 97 -52 97 -49 0 4 -43 133 -95 286 -51 154 -91 284 -88 288 2 5
10 7 16 5 6 -2 58 -142 115 -313z m3159 -345 c95 -14 213 -6 318 21 43 11 80
20 82 20 1 0 3 -101 3 -225 0 -143 4 -225 10 -225 6 0 10 14 10 30 0 38 2 38
183 0 397 -84 733 -207 850 -313 43 -39 57 -64 163 -307 64 -146 163 -372 220
-504 58 -131 103 -240 102 -242 -11 -10 -203 -81 -308 -114 -111 -34 -180 -50
-340 -78 l-45 -8 -21 -94 c-12 -52 -28 -129 -35 -170 l-14 -75 -1097 -3 -1098
-2 -5 22 c-2 13 -12 66 -20 118 -9 52 -21 120 -28 150 -14 61 -4 56 -162 85
-149 28 -525 152 -525 173 0 4 39 95 86 202 47 107 139 318 205 467 148 341
149 343 201 387 119 102 453 223 863 311 153 33 165 33 165 -5 0 -16 5 -30 10
-30 6 0 10 84 10 233 l0 233 69 -23 c38 -13 105 -28 148 -34z m-1632 -1819
c119 -47 295 -98 417 -120 61 -11 113 -20 114 -20 1 0 8 -31 15 -69 12 -69 12
-69 -25 -165 l-38 -96 -374 0 c-206 0 -374 3 -374 8 0 27 167 492 177 492 7 0
47 -14 88 -30z m3577 -215 c31 -127 58 -236 58 -243 0 -10 -73 -12 -347 -10
l-348 3 -37 92 -37 93 17 67 17 68 70 13 c172 31 448 109 505 143 36 21 43 6
102 -226z m-2998 -162 c3 -21 6 -50 6 -65 0 -25 -3 -28 -35 -28 -19 0 -35 4
-35 9 0 18 43 121 50 121 4 0 10 -17 14 -37z m2308 -21 c25 -66 24 -74 -14
-70 -36 3 -38 13 -23 97 7 40 14 35 37 -27z m3362 -1069 c19 -60 37 -125 41
-145 l7 -38 -45 0 c-32 0 -47 5 -51 16 -12 32 -4 274 10 274 2 0 19 -48 38
-107z m-9418 32 c22 -22 25 -32 22 -88 l-3 -62 -67 -3 -68 -3 0 67 c0 56 4 72
22 91 28 30 63 29 94 -2z m-206 -193 c19 -23 20 -38 18 -196 l-3 -171 -67 -3
c-64 -3 -68 -2 -74 22 -3 13 -4 94 -2 179 3 161 8 180 52 197 29 10 54 1 76
-28z m490 -167 l0 -206 -67 3 -68 3 -3 180 c-1 99 0 190 3 203 5 20 11 22 70
22 l65 0 0 -205z m-262 -7 l-3 -193 -67 -3 -68 -3 0 196 0 195 70 0 70 0 -2
-192z m10030 -580 l2 -708 -515 0 -515 0 0 710 0 710 513 -2 512 -3 3 -707z
m-9503 487 l0 -100 -70 0 -70 0 -3 89 c-2 49 0 96 2 103 4 10 23 13 73 11 l68
-3 0 -100z m1305 -96 c50 -84 88 -155 84 -158 -8 -8 -992 -6 -1000 2 -3 3 40
73 96 156 l102 151 314 0 313 0 91 -151z m84 -188 c3 -5 2 -31 -4 -57 -38
-196 -160 -840 -160 -846 0 -5 -154 -7 -342 -6 l-343 3 -37 215 c-20 118 -55
320 -78 447 -23 128 -39 237 -35 243 8 13 991 14 999 1z m8828 -947 c58 -19
120 -73 155 -131 20 -34 27 -63 31 -119 4 -68 2 -80 -27 -139 -35 -71 -84
-116 -151 -140 -37 -13 -714 -15 -5664 -15 -5123 0 -5627 1 -5669 16 -55 19
-124 82 -152 139 -30 63 -32 169 -5 234 27 62 102 133 163 154 37 14 699 16
5658 16 5054 1 5620 -1 5661 -15z"/>
<path d="M7597 9310 c-20 -4 -40 -10 -44 -13 -14 -14 6 -17 59 -7 58 11 139 0
165 -22 8 -6 17 -8 21 -4 10 10 -25 34 -68 46 -39 11 -77 11 -133 0z"/>
<path d="M6972 9183 c-22 -8 -42 -60 -42 -107 0 -50 37 -106 70 -106 33 0 70
56 70 106 0 83 -42 130 -98 107z"/>
<path d="M7588 9173 c-49 -57 -51 -139 -3 -186 24 -24 43 -21 76 12 25 25 29
37 29 84 0 87 -59 139 -102 90z"/>
<path d="M7264 9003 c24 -115 29 -180 16 -255 -14 -90 -7 -108 44 -108 42 0
121 27 138 47 15 19 9 18 -71 -12 -24 -9 -56 -15 -70 -13 -22 3 -26 7 -23 33
9 84 6 235 -7 283 -13 53 -38 75 -27 25z"/>
<path d="M7546 8520 c-67 -51 -115 -64 -213 -57 -67 5 -84 4 -74 -6 16 -16
155 -22 200 -8 45 13 127 66 135 86 8 22 -4 18 -48 -15z"/>
<path d="M3856 3674 c-13 -33 -5 -143 13 -197 28 -82 35 -138 22 -198 -6 -28
-9 -54 -7 -57 8 -8 66 20 98 46 88 74 102 239 28 340 -40 55 -141 99 -154 66z"/>
<path d="M3743 3664 c-64 -32 -113 -125 -113 -213 0 -73 26 -134 75 -180 45
-42 107 -63 127 -43 6 6 13 44 16 84 3 60 -1 88 -23 161 -22 70 -27 100 -22
148 6 67 -1 72 -60 43z"/>
</g>
</svg>
